<mxfile host="app.diagrams.net" agent="Mozilla/5.0 (X11; Linux x86_64) AppleWebKit/537.36 (KHTML, like Gecko) Chrome/141.0.0.0 Safari/537.36" version="28.2.8">
  <diagram id="C5RBs43oDa-KdzZeNtuy" name="Page-1">
    <mxGraphModel dx="-828" dy="452" grid="1" gridSize="10" guides="1" tooltips="1" connect="1" arrows="1" fold="1" page="1" pageScale="1" pageWidth="827" pageHeight="1169" math="0" shadow="0">
      <root>
        <mxCell id="WIyWlLk6GJQsqaUBKTNV-0" />
        <mxCell id="WIyWlLk6GJQsqaUBKTNV-1" parent="WIyWlLk6GJQsqaUBKTNV-0" />
        <mxCell id="4HlKtFE8o1gmcFelfRY4-11" style="edgeStyle=orthogonalEdgeStyle;rounded=0;orthogonalLoop=1;jettySize=auto;html=1;exitX=0.5;exitY=1;exitDx=0;exitDy=0;entryX=0.5;entryY=0;entryDx=0;entryDy=0;" edge="1" parent="WIyWlLk6GJQsqaUBKTNV-1" source="4HlKtFE8o1gmcFelfRY4-1" target="4HlKtFE8o1gmcFelfRY4-4">
          <mxGeometry relative="1" as="geometry" />
        </mxCell>
        <mxCell id="4HlKtFE8o1gmcFelfRY4-1" value="START" style="ellipse;whiteSpace=wrap;html=1;fontStyle=1" vertex="1" parent="WIyWlLk6GJQsqaUBKTNV-1">
          <mxGeometry x="2028" y="30" width="80" height="40" as="geometry" />
        </mxCell>
        <mxCell id="4HlKtFE8o1gmcFelfRY4-12" style="edgeStyle=orthogonalEdgeStyle;rounded=0;orthogonalLoop=1;jettySize=auto;html=1;exitX=0.5;exitY=1;exitDx=0;exitDy=0;entryX=0.5;entryY=0;entryDx=0;entryDy=0;" edge="1" parent="WIyWlLk6GJQsqaUBKTNV-1" source="4HlKtFE8o1gmcFelfRY4-4" target="4HlKtFE8o1gmcFelfRY4-10">
          <mxGeometry relative="1" as="geometry" />
        </mxCell>
        <mxCell id="4HlKtFE8o1gmcFelfRY4-4" value="GetSync (Contract)" style="swimlane;whiteSpace=wrap;html=1;" vertex="1" parent="WIyWlLk6GJQsqaUBKTNV-1">
          <mxGeometry x="1817" y="100" width="502" height="120" as="geometry" />
        </mxCell>
        <mxCell id="4HlKtFE8o1gmcFelfRY4-8" style="edgeStyle=orthogonalEdgeStyle;rounded=0;orthogonalLoop=1;jettySize=auto;html=1;exitX=1;exitY=0.5;exitDx=0;exitDy=0;entryX=0;entryY=0.5;entryDx=0;entryDy=0;" edge="1" parent="4HlKtFE8o1gmcFelfRY4-4" source="4HlKtFE8o1gmcFelfRY4-6" target="4HlKtFE8o1gmcFelfRY4-7">
          <mxGeometry relative="1" as="geometry" />
        </mxCell>
        <mxCell id="4HlKtFE8o1gmcFelfRY4-6" value="reqContractDetails(ID, contract)" style="rounded=0;whiteSpace=wrap;html=1;" vertex="1" parent="4HlKtFE8o1gmcFelfRY4-4">
          <mxGeometry x="13.5" y="40" width="260" height="60" as="geometry" />
        </mxCell>
        <mxCell id="4HlKtFE8o1gmcFelfRY4-9" style="edgeStyle=orthogonalEdgeStyle;rounded=0;orthogonalLoop=1;jettySize=auto;html=1;exitX=0.5;exitY=1;exitDx=0;exitDy=0;" edge="1" parent="4HlKtFE8o1gmcFelfRY4-4" source="4HlKtFE8o1gmcFelfRY4-7">
          <mxGeometry relative="1" as="geometry">
            <mxPoint x="394.3809523809523" y="120" as="targetPoint" />
          </mxGeometry>
        </mxCell>
        <mxCell id="4HlKtFE8o1gmcFelfRY4-7" value="contractDetails (ID, details&lt;span style=&quot;background-color: transparent; color: light-dark(rgb(0, 0, 0), rgb(255, 255, 255));&quot;&gt;)&lt;/span&gt;" style="shape=hexagon;perimeter=hexagonPerimeter2;whiteSpace=wrap;html=1;fixedSize=1;" vertex="1" parent="4HlKtFE8o1gmcFelfRY4-4">
          <mxGeometry x="299" y="55" width="191" height="30" as="geometry" />
        </mxCell>
        <mxCell id="4HlKtFE8o1gmcFelfRY4-10" value="END" style="ellipse;whiteSpace=wrap;html=1;fontStyle=1" vertex="1" parent="WIyWlLk6GJQsqaUBKTNV-1">
          <mxGeometry x="2028" y="250" width="80" height="40" as="geometry" />
        </mxCell>
      </root>
    </mxGraphModel>
  </diagram>
</mxfile>
